<?xml version="1.0" standalone="no"?>
<!DOCTYPE svg PUBLIC "-//W3C//DTD SVG 20010904//EN"
 "http://www.w3.org/TR/2001/REC-SVG-20010904/DTD/svg10.dtd">
<svg version="1.0" xmlns="http://www.w3.org/2000/svg"
 width="1115.000000pt" height="648.000000pt" viewBox="0 0 1115.000000 648.000000"
 preserveAspectRatio="xMidYMid meet">

<g transform="translate(0.000000,648.000000) scale(0.100000,-0.100000)"
fill="#000000" stroke="none">
<path d="M4884 6142 c-28 -18 -37 -62 -13 -62 8 0 39 52 39 65 0 7 -13 6 -26
-3z"/>
<path d="M5130 6140 c0 -5 5 -10 10 -10 6 0 10 5 10 10 0 6 -4 10 -10 10 -5 0
-10 -4 -10 -10z"/>
<path d="M4952 6118 c-16 -16 -15 -28 2 -28 19 0 27 13 17 28 -5 9 -10 9 -19
0z"/>
<path d="M5170 6105 c0 -8 14 -24 30 -37 17 -12 30 -28 30 -35 0 -7 5 -13 10
-13 17 0 11 20 -16 55 -28 38 -54 52 -54 30z"/>
<path d="M5125 6080 c-9 -14 41 -64 55 -55 7 4 3 17 -10 36 -23 31 -35 36 -45
19z"/>
<path d="M4880 6072 c0 -15 38 -44 49 -37 17 10 -6 45 -29 45 -11 0 -20 -4
-20 -8z"/>
<path d="M4788 5962 c-18 -43 -22 -114 -8 -167 6 -22 8 -12 9 43 0 40 6 82 12
93 5 11 9 32 7 47 -3 25 -4 24 -20 -16z"/>
<path d="M5257 5960 c3 -11 7 -20 8 -20 1 0 5 9 8 20 3 12 0 20 -8 20 -8 0
-11 -8 -8 -20z"/>
<path d="M5287 5954 c-11 -11 -8 -52 3 -59 6 -3 13 0 15 8 7 17 -8 60 -18 51z"/>
<path d="M5296 5854 c-3 -9 -1 -43 6 -74 9 -44 9 -71 1 -107 l-11 -48 19 24
c15 18 19 39 19 91 0 106 -16 160 -34 114z"/>
<path d="M4887 5846 c-5 -14 10 -36 25 -36 4 0 8 11 8 25 0 27 -24 35 -33 11z"/>
<path d="M4800 5700 c0 -22 1 -23 24 -14 23 9 20 34 -4 34 -13 0 -20 -7 -20
-20z"/>
<path d="M4950 5710 c-13 -9 -13 -11 0 -20 15 -10 25 0 18 20 -2 6 -8 6 -18 0z"/>
<path d="M4876 5701 c-9 -15 4 -38 30 -56 23 -15 24 -14 24 5 0 11 -9 29 -20
40 -23 23 -26 24 -34 11z"/>
<path d="M4820 5641 c0 -10 9 -26 20 -36 11 -10 20 -22 20 -27 0 -20 95 -108
124 -113 17 -4 50 -16 73 -27 38 -17 46 -18 80 -6 44 15 117 81 111 100 -6 17
-75 23 -93 8 -9 -8 -15 -8 -20 0 -11 18 -35 11 -44 -14 -11 -28 -29 -36 -81
-36 -46 0 -56 12 -59 69 -2 54 -13 75 -21 41 -9 -40 -35 -36 -53 8 -17 42 -57
65 -57 33z m390 -129 c0 -24 -68 -62 -109 -62 -17 0 -31 5 -31 10 0 6 10 10
23 10 13 0 33 13 47 30 28 33 70 41 70 12z"/>
<path d="M4970 5525 c0 -10 10 -15 28 -15 26 1 26 1 8 15 -25 19 -36 19 -36 0z"/>
<path d="M3985 4943 c-38 -10 -90 -37 -108 -55 -10 -10 -28 -39 -39 -65 -62
-140 57 -342 251 -425 63 -26 90 -32 152 -32 68 -1 81 3 125 29 66 41 94 92
94 170 0 89 -35 165 -112 245 -84 87 -165 127 -268 134 -41 3 -84 2 -95 -1z"/>
<path d="M8989 4751 c-19 -4 -47 -16 -61 -27 -29 -21 -90 -141 -108 -214 -58
-228 -62 -289 -20 -376 24 -49 63 -69 115 -61 87 14 159 124 247 377 22 63 40
135 41 160 1 51 -23 103 -56 124 -27 18 -110 27 -158 17z"/>
<path d="M9672 4514 c-67 -18 -81 -25 -171 -92 -246 -185 -477 -482 -544 -702
-60 -196 -47 -362 37 -457 47 -53 128 -108 171 -115 139 -25 322 -64 377 -80
74 -23 85 -38 72 -105 -6 -29 -33 -63 -139 -170 -142 -143 -175 -185 -195
-249 -11 -36 -10 -49 5 -93 10 -30 29 -61 48 -77 27 -23 38 -26 88 -22 77 6
157 59 298 197 142 139 223 247 273 363 37 86 41 101 42 188 2 165 -53 257
-195 329 -44 23 -88 41 -97 41 -8 0 -29 4 -46 9 -17 6 -80 20 -141 32 -197 38
-245 64 -245 128 1 58 69 178 181 321 74 94 136 151 248 232 89 63 120 114
121 195 0 57 -27 101 -81 128 -33 18 -39 18 -107 -1z"/>
<path d="M5935 4380 c3 -5 12 -7 20 -3 21 7 19 13 -6 13 -11 0 -18 -4 -14 -10z"/>
<path d="M5778 4343 c7 -3 16 -2 19 1 4 3 -2 6 -13 5 -11 0 -14 -3 -6 -6z"/>
<path d="M5670 4320 c0 -13 11 -13 30 0 12 8 11 10 -7 10 -13 0 -23 -4 -23
-10z"/>
<path d="M6965 4280 c-11 -5 -30 -9 -42 -9 -20 -1 -71 -23 -170 -75 -48 -26
-169 -142 -217 -210 -161 -227 -267 -568 -297 -963 -12 -156 -11 -195 11 -513
16 -240 75 -592 110 -659 56 -108 145 -130 245 -61 130 90 151 182 91 400 -16
58 -29 136 -32 201 -9 149 -18 140 288 295 218 110 252 131 286 172 95 116 94
236 -3 293 -62 36 -117 23 -305 -75 -201 -104 -228 -116 -254 -116 -43 0 -51
23 -49 148 4 209 57 427 144 598 47 92 79 129 126 145 45 14 71 -3 111 -73 35
-63 46 -73 88 -81 61 -12 103 3 153 53 55 55 87 143 76 209 -20 122 -85 240
-155 283 -64 40 -159 58 -205 38z"/>
<path d="M8408 4086 c-109 -64 -139 -119 -257 -473 -33 -98 -85 -244 -116
-324 -83 -214 -135 -299 -181 -299 -60 0 -98 127 -180 604 -14 81 -22 104 -46
132 -70 80 -193 42 -267 -82 -20 -33 -24 -57 -29 -158 -3 -66 0 -156 7 -205 6
-47 16 -122 22 -166 11 -88 16 -109 54 -240 49 -164 129 -287 223 -343 42 -24
56 -27 132 -26 66 1 94 6 127 22 142 73 246 187 351 382 33 63 78 120 93 120
4 0 15 -8 25 -17 35 -35 -2 -387 -62 -593 -84 -288 -210 -516 -348 -632 -101
-85 -145 -104 -231 -99 -152 9 -173 6 -218 -25 -64 -46 -101 -112 -105 -195
-5 -85 17 -126 95 -176 75 -48 158 -55 269 -22 43 12 98 33 122 46 23 13 63
35 90 49 109 61 295 229 370 336 94 133 169 271 216 393 15 39 32 79 36 90 29
62 91 276 110 375 53 270 65 474 45 720 -27 339 -47 508 -71 627 -20 100 -37
136 -81 172 -33 27 -44 31 -98 30 -43 -1 -71 -7 -97 -23z"/>
<path d="M5290 4069 c0 -5 5 -7 10 -4 6 3 10 8 10 11 0 2 -4 4 -10 4 -5 0 -10
-5 -10 -11z"/>
<path d="M5805 4015 c-136 -43 -285 -157 -381 -291 -136 -191 -241 -508 -284
-859 -22 -179 -4 -642 35 -890 32 -209 38 -242 52 -295 35 -128 85 -180 172
-180 78 0 185 89 216 179 21 63 19 96 -15 218 -36 126 -56 272 -46 326 11 61
54 93 259 194 273 134 267 130 322 193 56 64 63 81 64 163 1 52 -2 61 -32 93
-26 29 -42 37 -80 41 -67 8 -124 -11 -267 -85 -203 -106 -219 -113 -250 -114
-39 -1 -42 2 -50 58 -7 43 10 260 25 329 12 58 47 190 55 210 4 11 16 40 25
65 28 75 83 166 121 199 29 26 43 31 72 29 33 -3 41 -10 83 -72 50 -76 73 -90
134 -82 52 7 87 25 118 62 52 62 62 94 61 184 -2 78 -5 91 -43 165 -47 93 -76
123 -148 153 -59 25 -153 28 -218 7z"/>
<path d="M4700 3935 c0 -8 5 -15 10 -15 6 0 10 7 10 15 0 8 -4 15 -10 15 -5 0
-10 -7 -10 -15z"/>
<path d="M4755 3860 c3 -5 8 -10 11 -10 2 0 4 5 4 10 0 6 -5 10 -11 10 -5 0
-7 -4 -4 -10z"/>
<path d="M5025 3860 c-3 -5 -2 -10 4 -10 5 0 13 5 16 10 3 6 2 10 -4 10 -5 0
-13 -4 -16 -10z"/>
<path d="M2315 3651 c-70 -25 -82 -30 -150 -69 -70 -41 -355 -251 -355 -263 0
-4 -6 -9 -12 -11 -20 -5 -187 -185 -249 -268 -111 -148 -186 -297 -209 -418
-8 -37 -11 -103 -8 -161 4 -85 9 -105 33 -147 90 -154 176 -206 540 -329 228
-77 373 -143 434 -198 68 -63 88 -143 55 -223 -17 -39 -96 -146 -132 -175
-125 -105 -195 -150 -357 -227 -115 -56 -155 -87 -191 -148 -39 -66 -43 -138
-11 -207 22 -48 31 -57 71 -72 100 -38 266 13 450 139 167 115 199 140 303
244 120 121 210 246 259 361 36 82 64 220 64 310 0 107 -74 269 -157 347 -123
115 -240 174 -573 289 -241 83 -303 111 -330 148 -44 59 -5 173 99 292 70 79
268 271 312 300 24 16 46 33 49 36 5 6 120 62 211 102 38 17 96 82 117 130 25
57 3 197 -32 197 -5 0 -18 7 -27 16 -28 25 -141 28 -204 5z"/>
<path d="M3220 3550 c-42 -12 -84 -37 -110 -67 -51 -57 -63 -96 -95 -290 -8
-51 -21 -106 -30 -122 -14 -28 -73 -81 -89 -81 -5 0 -22 -6 -39 -14 -18 -8
-67 -29 -110 -47 -98 -40 -153 -81 -192 -143 -25 -41 -30 -59 -30 -113 0 -58
3 -67 28 -88 46 -40 86 -41 226 -6 124 31 126 31 151 13 33 -25 37 -50 39
-217 4 -326 47 -986 78 -1195 13 -83 51 -129 124 -150 61 -18 158 36 209 116
46 73 47 139 10 574 -31 360 -45 757 -32 885 11 94 13 102 44 130 23 22 68 42
146 68 169 56 212 82 271 166 28 39 31 52 31 117 0 63 -3 76 -25 103 -14 16
-41 35 -60 41 -38 13 -45 12 -213 -27 -96 -22 -116 -24 -142 -13 -17 7 -31 18
-32 24 -1 6 -2 68 -2 138 l-1 128 -31 30 c-34 34 -85 50 -124 40z"/>
<path d="M4643 3105 c-17 -7 -58 -40 -91 -72 -86 -85 -147 -219 -291 -647
-116 -342 -122 -357 -147 -408 -24 -47 -58 -69 -84 -53 -41 26 -81 255 -85
485 -2 96 -4 191 -4 210 -1 30 -8 41 -43 68 -51 39 -110 42 -178 9 -50 -25
-80 -63 -110 -144 -40 -107 -36 -544 6 -738 17 -73 53 -199 65 -225 34 -72 50
-97 87 -140 24 -27 60 -58 80 -67 69 -33 216 -17 268 29 11 10 24 18 28 18 10
0 88 79 128 130 55 71 150 248 226 420 24 55 53 83 75 74 17 -6 41 -78 68
-199 38 -175 123 -240 245 -189 55 23 85 49 116 102 24 40 28 58 28 122 0 41
-7 107 -15 145 -29 130 -36 178 -65 415 -6 41 -17 147 -25 235 -19 198 -31
268 -57 322 -26 52 -51 75 -106 96 -51 20 -77 21 -119 2z"/>
<path d="M6795 1580 c-16 -7 -13 -9 15 -9 19 0 44 4 55 9 16 7 13 9 -15 9 -19
0 -44 -4 -55 -9z"/>
<path d="M6922 1578 c6 -18 28 -21 28 -4 0 9 -7 16 -16 16 -9 0 -14 -5 -12
-12z"/>
<path d="M6700 1560 c-11 -7 -12 -12 -4 -20 8 -8 14 -7 23 4 14 17 1 28 -19
16z"/>
<path d="M6840 1480 c0 -5 9 -10 19 -10 11 0 23 5 26 10 4 6 -5 10 -19 10 -14
0 -26 -4 -26 -10z"/>
<path d="M6556 1461 c-4 -7 -5 -15 -2 -18 9 -9 19 4 14 18 -4 11 -6 11 -12 0z"/>
<path d="M6726 1454 c-4 -11 -1 -14 11 -12 9 2 18 9 21 16 6 18 -25 15 -32 -4z"/>
<path d="M6310 1451 c0 -5 9 -7 20 -4 11 3 20 7 20 9 0 2 -9 4 -20 4 -11 0
-20 -4 -20 -9z"/>
<path d="M6220 1440 c-12 -8 -11 -10 8 -10 12 0 22 5 22 10 0 13 -11 13 -30 0z"/>
<path d="M6666 1405 c-19 -29 -20 -35 -3 -35 7 0 18 14 24 30 14 36 1 39 -21
5z"/>
<path d="M6520 1399 c0 -5 5 -7 10 -4 6 3 10 8 10 11 0 2 -4 4 -10 4 -5 0 -10
-5 -10 -11z"/>
<path d="M6522 1330 c0 -14 2 -19 5 -12 2 6 2 18 0 25 -3 6 -5 1 -5 -13z"/>
<path d="M6248 1323 c7 -3 16 -2 19 1 4 3 -2 6 -13 5 -11 0 -14 -3 -6 -6z"/>
<path d="M6680 1295 c7 -8 16 -12 21 -9 13 8 1 24 -18 24 -13 0 -13 -3 -3 -15z"/>
<path d="M6740 1280 c0 -6 7 -10 15 -10 8 0 15 2 15 4 0 2 -7 6 -15 10 -8 3
-15 1 -15 -4z"/>
<path d="M5518 1273 c6 -2 18 -2 25 0 6 3 1 5 -13 5 -14 0 -19 -2 -12 -5z"/>
<path d="M5814 1245 c0 -14 7 -25 14 -25 16 0 15 25 -2 39 -11 10 -14 7 -12
-14z"/>
<path d="M5890 1260 c0 -5 7 -10 15 -10 8 0 15 5 15 10 0 6 -7 10 -15 10 -8 0
-15 -4 -15 -10z"/>
<path d="M6556 1231 c-4 -7 -5 -15 -2 -18 9 -9 19 4 14 18 -4 11 -6 11 -12 0z"/>
<path d="M6958 1233 c7 -3 16 -2 19 1 4 3 -2 6 -13 5 -11 0 -14 -3 -6 -6z"/>
<path d="M5250 1204 c0 -8 5 -12 10 -9 6 3 10 10 10 16 0 5 -4 9 -10 9 -5 0
-10 -7 -10 -16z"/>
<path d="M6191 1204 c0 -11 3 -14 6 -6 3 7 2 16 -1 19 -3 4 -6 -2 -5 -13z"/>
<path d="M5575 1180 c3 -5 12 -10 20 -10 8 0 17 5 20 10 4 6 -5 10 -20 10 -15
0 -24 -4 -20 -10z"/>
<path d="M7050 1166 c0 -9 5 -16 10 -16 6 0 10 4 10 9 0 6 -4 13 -10 16 -5 3
-10 -1 -10 -9z"/>
<path d="M5430 1162 c0 -12 19 -26 26 -19 2 2 -2 10 -11 17 -9 8 -15 8 -15 2z"/>
<path d="M6648 1163 c7 -3 16 -2 19 1 4 3 -2 6 -13 5 -11 0 -14 -3 -6 -6z"/>
<path d="M6865 1160 c3 -5 10 -10 16 -10 5 0 9 5 9 10 0 6 -7 10 -16 10 -8 0
-12 -4 -9 -10z"/>
<path d="M5210 1128 c0 -13 5 -30 10 -38 7 -11 10 -5 10 23 0 20 -4 37 -10 37
-5 0 -10 -10 -10 -22z"/>
<path d="M4760 1109 c-30 -11 -41 -17 -25 -14 17 3 61 8 100 12 48 4 63 9 50
14 -32 12 -66 9 -125 -12z"/>
<path d="M6150 1096 c0 -22 3 -27 11 -19 8 8 8 16 0 30 -9 16 -10 14 -11 -11z"/>
<path d="M7077 1100 c-3 -11 -1 -20 4 -20 5 0 9 9 9 20 0 11 -2 20 -4 20 -2 0
-6 -9 -9 -20z"/>
<path d="M6868 1103 c7 -3 16 -2 19 1 4 3 -2 6 -13 5 -11 0 -14 -3 -6 -6z"/>
<path d="M5365 1091 c-3 -5 -1 -12 5 -16 5 -3 10 1 10 9 0 18 -6 21 -15 7z"/>
<path d="M5276 1072 c-2 -4 -1 -14 5 -22 7 -12 9 -10 9 8 0 23 -5 28 -14 14z"/>
<path d="M7098 1054 c-5 -4 -8 -19 -8 -33 1 -23 2 -24 11 -8 11 19 9 53 -3 41z"/>
<path d="M5030 1011 c0 -10 7 -21 15 -25 16 -6 19 3 9 28 -8 22 -24 20 -24 -3z"/>
<path d="M5392 995 c0 -16 2 -22 5 -12 2 9 2 23 0 30 -3 6 -5 -1 -5 -18z"/>
<path d="M4690 1000 c0 -12 27 -12 55 0 16 7 13 9 -17 9 -21 1 -38 -3 -38 -9z"/>
<path d="M5673 1003 c-18 -6 -16 -23 1 -23 17 0 30 16 19 23 -5 2 -14 2 -20 0z"/>
<path d="M4880 991 c0 -5 11 -16 25 -25 28 -18 34 -6 9 18 -17 18 -34 21 -34
7z"/>
<path d="M5518 953 c6 -2 18 -2 25 0 6 3 1 5 -13 5 -14 0 -19 -2 -12 -5z"/>
<path d="M6880 943 c-24 -12 -24 -13 -3 -13 12 0 25 5 28 11 11 16 2 17 -25 2z"/>
<path d="M5070 931 c0 -12 5 -21 10 -21 6 0 10 6 10 14 0 8 -4 18 -10 21 -5 3
-10 -3 -10 -14z"/>
<path d="M5255 919 c6 -43 15 -50 15 -11 0 17 -4 33 -9 37 -6 3 -8 -8 -6 -26z"/>
<path d="M5410 931 c0 -6 5 -13 10 -16 6 -3 10 1 10 9 0 9 -4 16 -10 16 -5 0
-10 -4 -10 -9z"/>
<path d="M5696 933 c-11 -11 -6 -23 9 -23 8 0 15 4 15 9 0 13 -16 22 -24 14z"/>
<path d="M7030 920 c0 -5 5 -10 10 -10 6 0 10 5 10 10 0 6 -4 10 -10 10 -5 0
-10 -4 -10 -10z"/>
<path d="M6630 905 c0 -8 4 -15 9 -15 5 0 11 7 15 15 3 9 0 15 -9 15 -8 0 -15
-7 -15 -15z"/>
<path d="M4670 880 c0 -5 5 -10 11 -10 5 0 7 5 4 10 -3 6 -8 10 -11 10 -2 0
-4 -4 -4 -10z"/>
<path d="M4930 871 c0 -11 4 -22 9 -25 11 -7 20 14 13 32 -7 19 -22 14 -22 -7z"/>
<path d="M5080 843 c0 -22 2 -25 10 -13 13 20 13 40 0 40 -5 0 -10 -12 -10
-27z"/>
<path d="M4530 843 c0 -12 5 -25 10 -28 13 -8 13 15 0 35 -8 12 -10 11 -10 -7z"/>
<path d="M5530 850 c-13 -8 -12 -10 3 -10 9 0 17 5 17 10 0 12 -1 12 -20 0z"/>
<path d="M5020 826 c0 -31 6 -34 13 -6 3 11 1 23 -4 26 -5 3 -9 -6 -9 -20z"/>
<path d="M5282 830 c0 -14 2 -19 5 -12 2 6 2 18 0 25 -3 6 -5 1 -5 -13z"/>
<path d="M6890 820 c0 -5 4 -10 9 -10 6 0 13 5 16 10 3 6 -1 10 -9 10 -9 0
-16 -4 -16 -10z"/>
<path d="M6730 790 c0 -5 11 -10 24 -10 14 0 28 5 31 10 4 6 -7 10 -24 10 -17
0 -31 -4 -31 -10z"/>
<path d="M4865 760 c-3 -5 3 -10 14 -10 12 0 21 5 21 10 0 6 -6 10 -14 10 -8
0 -18 -4 -21 -10z"/>
<path d="M4562 730 c0 -14 2 -19 5 -12 2 6 2 18 0 25 -3 6 -5 1 -5 -13z"/>
<path d="M6141 734 c0 -11 3 -14 6 -6 3 7 2 16 -1 19 -3 4 -6 -2 -5 -13z"/>
<path d="M6287 719 c-4 -13 -2 -28 3 -33 14 -14 24 19 12 40 -8 14 -10 13 -15
-7z"/>
<path d="M4815 700 c-3 -5 -1 -10 4 -10 6 0 11 5 11 10 0 6 -2 10 -4 10 -3 0
-8 -4 -11 -10z"/>
<path d="M5760 684 l-25 -15 34 3 c19 2 36 9 39 16 5 16 -16 14 -48 -4z"/>
<path d="M6238 683 c7 -3 16 -2 19 1 4 3 -2 6 -13 5 -11 0 -14 -3 -6 -6z"/>
<path d="M6155 670 c-3 -5 1 -10 10 -10 9 0 13 5 10 10 -3 6 -8 10 -10 10 -2
0 -7 -4 -10 -10z"/>
<path d="M4843 643 c9 -2 23 -2 30 0 6 3 -1 5 -18 5 -16 0 -22 -2 -12 -5z"/>
<path d="M5555 640 c-3 -5 1 -10 9 -10 9 0 16 5 16 10 0 6 -4 10 -9 10 -6 0
-13 -4 -16 -10z"/>
<path d="M5807 606 c-6 -15 1 -26 15 -26 11 0 10 27 -1 34 -5 3 -11 0 -14 -8z"/>
<path d="M5320 583 c0 -5 8 -17 17 -28 14 -18 15 -18 9 -2 -3 10 -6 23 -6 28
0 5 -4 9 -10 9 -5 0 -10 -3 -10 -7z"/>
<path d="M4641 564 c0 -11 3 -14 6 -6 3 7 2 16 -1 19 -3 4 -6 -2 -5 -13z"/>
<path d="M4750 545 c0 -19 5 -35 10 -35 6 0 10 16 10 35 0 19 -4 35 -10 35 -5
0 -10 -16 -10 -35z"/>
<path d="M5705 560 c-4 -6 6 -7 27 -3 44 8 48 13 10 13 -17 0 -34 -4 -37 -10z"/>
<path d="M5458 503 c6 -2 18 -2 25 0 6 3 1 5 -13 5 -14 0 -19 -2 -12 -5z"/>
<path d="M4615 478 c-4 -10 -4 -26 0 -35 8 -17 8 -17 12 0 3 9 3 25 0 35 -4
16 -4 16 -12 0z"/>
<path d="M5350 480 c0 -5 5 -10 10 -10 6 0 10 5 10 10 0 6 -4 10 -10 10 -5 0
-10 -4 -10 -10z"/>
<path d="M5398 483 c7 -3 16 -2 19 1 4 3 -2 6 -13 5 -11 0 -14 -3 -6 -6z"/>
<path d="M4778 443 c7 -3 16 -2 19 1 4 3 -2 6 -13 5 -11 0 -14 -3 -6 -6z"/>
<path d="M4640 358 c0 -17 2 -18 15 -8 8 7 15 14 15 15 0 2 -7 5 -15 9 -10 4
-15 -1 -15 -16z"/>
</g>
</svg>
